<svg xmlns="http://www.w3.org/2000/svg" viewBox="0 0 260 60" fill="currentColor">
  <!-- Crystal cluster icon (scaled to 56x56, offset 2,2) -->
  <g transform="translate(2,2) scale(0.56)">
    <polygon points="46,6 54,6 58,14 50,17 42,14"/>
    <polygon points="62,12 70,18 67,26 59,24 57,16"/>
    <polygon points="74,28 80,36 75,44 67,40 67,32"/>
    <polygon points="72,50 78,58 72,64 64,60 65,52"/>
    <polygon points="60,68 66,76 60,82 52,78 52,70"/>
    <polygon points="42,74 50,78 50,86 41,84 38,76"/>
    <polygon points="28,64 36,68 34,76 26,74 24,66"/>
    <polygon points="20,50 28,52 28,62 20,62 16,54"/>
    <polygon points="22,34 30,30 36,38 30,44 22,42"/>
    <polygon points="34,16 42,14 44,22 36,26 30,22"/>
    <polygon points="46,22 54,20 56,30 48,32 44,26"/>
    <polygon points="44,54 52,52 54,62 46,64 40,58"/>
  </g>
  <!-- Wordmark "Garium" -->
  <text x="70" y="42" font-family="'Courier New', 'Courier', monospace" font-size="28" font-weight="700" letter-spacing="1" fill="currentColor">Garium</text>
</svg>
